# xmcd
#
# Track frame offsets:
#	150
#	20946
#	30600
#	66486
#	88481
#	104830
#	129860
#	152604
#	171952
#	186553
#
# Disc length: 2913 seconds
#
# Revision: 0
# Processed by: cddbd v1.5.2PL0 Copyright (c) Steve Scherf et al.
# Submitted via: EasyCDDAExtractor 16.0.1.1
#
DISCID=950b5f0a
DTITLE=The Tractors - Fast Girl
DYEAR=2001
DGENRE=Country
TTITLE0=Babalou
TTITLE1=Can't Get Nowhere
TTITLE2=Ready To Cry
TTITLE3=Higher Ground
TTITLE4=It's A Beautiful Thing
TTITLE5=Computer Controlled
TTITLE6=Fast Girl
TTITLE7=Don't Ever Take My Picture Down
TTITLE8=Nine Eleven
TTITLE9=A Little Place Of Our Own
EXTD=
EXTT0=
EXTT1=
EXTT2=
EXTT3=
EXTT4=
EXTT5=
EXTT6=
EXTT7=
EXTT8=
EXTT9=
PLAYORDER=
